<?xml version="1.0" standalone="no"?><!DOCTYPE svg PUBLIC "-//W3C//DTD SVG 1.1//EN" "http://www.w3.org/Graphics/SVG/1.1/DTD/svg11.dtd"><svg t="1515726924962" class="icon" style="" viewBox="0 0 1024 1024" version="1.1" xmlns="http://www.w3.org/2000/svg" p-id="2866" xmlns:xlink="http://www.w3.org/1999/xlink" width="64" height="64"><defs><style type="text/css"></style></defs><path d="M511.8194 962.957319c-247.782716 0-449.331922-201.549206-449.331922-449.331922 0-247.782716 201.549206-449.331922 449.331922-449.331923s449.331922 201.549206 449.331923 449.331923c0 247.782716-201.549206 449.331922-449.331923 449.331922m0-862.543915c-227.916755 0-413.211993 185.295238-413.211993 413.211993 0 227.916755 185.295238 413.211993 413.211993 413.211993 227.916755 0 413.211993-185.295238 413.211993-413.211993 0-227.916755-185.295238-413.211993-413.211993-413.211993" fill="#1afa29" p-id="2867"></path><path d="M463.418695 598.507231c0 10.11358-7.946384 18.059965-18.059965 18.059965h-14.447972c-10.11358 0-18.059965-7.946384-18.059964-18.059965v-169.402469c0-10.11358 7.946384-18.059965 18.059964-18.059965h14.447972c10.11358 0 18.059965 7.946384 18.059965 18.059965v169.402469zM611.149206 598.507231c0 10.11358-7.946384 18.059965-18.059964 18.059965h-14.447972c-10.11358 0-18.059965-7.946384-18.059965-18.059965v-169.402469c0-10.11358 7.946384-18.059965 18.059965-18.059965h14.447972c10.11358 0 18.059965 7.946384 18.059964 18.059965v169.402469z" fill="#1afa29" p-id="2868"></path></svg>