<?xml version="1.0" standalone="no"?><!DOCTYPE svg PUBLIC "-//W3C//DTD SVG 1.1//EN" "http://www.w3.org/Graphics/SVG/1.1/DTD/svg11.dtd"><svg t="1515726843669" class="icon" style="" viewBox="0 0 1024 1024" version="1.1" xmlns="http://www.w3.org/2000/svg" p-id="1012" xmlns:xlink="http://www.w3.org/1999/xlink" width="64" height="64"><defs><style type="text/css"></style></defs><path d="M447 285.7l198 198 28.3 28.3-28.3 28.3-198 198-28.3-28.3 198-198-198-198 28.3-28.3zM512 112c-54 0-106.4 10.6-155.7 31.4-47.6 20.1-90.4 49-127.2 85.7-36.7 36.7-65.6 79.5-85.7 127.2C122.6 405.6 112 458 112 512s10.6 106.4 31.4 155.7c20.1 47.6 49 90.4 85.7 127.2 36.7 36.7 79.5 65.6 127.2 85.7C405.6 901.4 458 912 512 912s106.4-10.6 155.7-31.4c47.6-20.1 90.4-49 127.2-85.7 36.7-36.7 65.6-79.5 85.7-127.2C901.4 618.4 912 566 912 512s-10.6-106.4-31.4-155.7c-20.1-47.6-49-90.4-85.7-127.2-36.7-36.7-79.5-65.6-127.2-85.7C618.4 122.6 566 112 512 112m0-40c243 0 440 197 440 440S755 952 512 952 72 755 72 512 269 72 512 72z" fill="#1afa29" p-id="1013"></path></svg>