<?xml version="1.0" encoding="utf-8"?>
<!-- Generator: Adobe Illustrator 21.0.0, SVG Export Plug-In . SVG Version: 6.00 Build 0)  -->
<svg version="1.1" id="图层_1" xmlns="http://www.w3.org/2000/svg" xmlns:xlink="http://www.w3.org/1999/xlink" x="0px" y="0px"
	 viewBox="0 0 32 32" style="enable-background:new 0 0 32 32;" xml:space="preserve">
<g>
	<g>
		<g>
			<g>
				<path d="M24.4,1h-2.8H10.6H7.7C4.1,1,1.1,4,1.1,7.6v16.6c0,3.8,3,6.8,6.6,6.8h16.6c3.6,0,6.6-3,6.6-6.6V7.6
					C31.1,4,28.1,1,24.4,1z M10.4,4.4h11.3v8.5H10.4V4.4z M27.7,24.4c0,1.9-1.5,3.4-3.4,3.4H7.7c-1.9,0-3.4-1.5-3.4-3.4V7.6
					c0-1.8,1.3-3.1,2.9-3.2v8.5c0,1.8,1.4,3.1,3.1,3.1h11.1c1.7,0,3.1-1.4,3.1-3.1V4.4c1.6,0.2,2.9,1.6,2.9,3.2v16.8H27.7z"/>
			</g>
		</g>
		<g>
			<g>
				<rect x="17.3" y="6.6" width="2.5" height="3.8"/>
			</g>
		</g>
	</g>
</g>
</svg>
