<?xml version="1.0" encoding="utf-8"?>
<!-- Generator: Adobe Illustrator 21.0.0, SVG Export Plug-In . SVG Version: 6.00 Build 0)  -->
<svg version="1.1" id="图层_1" xmlns="http://www.w3.org/2000/svg" xmlns:xlink="http://www.w3.org/1999/xlink" x="0px" y="0px"
	 viewBox="0 0 32 32" style="enable-background:new 0 0 32 32;" xml:space="preserve">
<g>
	<path d="M25.5,32h-19C4,32,2,30,2,27.5v-23C2,2,4,0,6.5,0h13L30,11.4v16.1C30,30,28,32,25.5,32z M6.5,3C5.7,3,5,3.7,5,4.5v23
		C5,28.3,5.7,29,6.5,29h19c0.8,0,1.5-0.7,1.5-1.5V12.6L18.2,3H6.5z"/>
	<path d="M15.4,13.5h-4.9C9.6,13.5,9,12.8,9,12s0.7-1.5,1.5-1.5h4.9c0.8,0,1.5,0.7,1.5,1.5S16.2,13.5,15.4,13.5z"/>
	<path d="M19.5,18.5h-9C9.6,18.5,9,17.8,9,17s0.7-1.5,1.5-1.5h9c0.8,0,1.5,0.7,1.5,1.5S20.3,18.5,19.5,18.5z"/>
	<path d="M19.5,23.5h-9C9.6,23.5,9,22.8,9,22s0.7-1.5,1.5-1.5h9c0.8,0,1.5,0.7,1.5,1.5S20.3,23.5,19.5,23.5z"/>
</g>
</svg>
