<?xml version="1.0" encoding="utf-8"?>
<!-- Generator: Adobe Illustrator 21.0.0, SVG Export Plug-In . SVG Version: 6.00 Build 0)  -->
<svg version="1.1" id="图层_1" xmlns="http://www.w3.org/2000/svg" xmlns:xlink="http://www.w3.org/1999/xlink" x="0px" y="0px"
	 viewBox="0 0 32 32" style="enable-background:new 0 0 32 32;" xml:space="preserve">
<path d="M19.2,0.5h-6.8c-0.8,0-1.5,0.7-1.5,1.7c0,0.9,0.7,1.7,1.5,1.7h6.8c0.8,0,1.5-0.7,1.5-1.7C20.7,1.2,20.1,0.5,19.2,0.5
	L19.2,0.5z M26.6,1.6L26.6,1.6l-3.4,0c0,0.2,0.1,0.4,0.1,0.6c0,1.4-1,2.8-2.2,2.8H10.7c-1.3,0-2.3-1.4-2.3-2.8c0-0.2,0-0.4,0.1-0.6
	H5c-2.8,0-3.4,1.6-3.4,3.8v22.3c0,2.4,1,3.8,3.6,3.8h21.2c2.7,0,4-1.1,4-3.8V5.4C30.4,3.2,29.2,1.6,26.6,1.6z M18.2,21.3
	C18.2,21.3,18.2,21.3,18.2,21.3l-8.8,0c-0.8,0-1.5-0.7-1.5-1.5c0-0.8,0.7-1.5,1.5-1.5c0,0,0,0,0,0l8.8,0c0.8,0,1.5,0.7,1.5,1.5
	C19.7,20.6,19,21.3,18.2,21.3z M22.6,13.4C22.6,13.4,22.6,13.4,22.6,13.4l-13.2,0c-0.8,0-1.5-0.7-1.5-1.5c0-0.8,0.7-1.5,1.5-1.5
	c0,0,0,0,0,0l13.1,0c0.8,0,1.5,0.7,1.5,1.5C24.1,12.7,23.4,13.4,22.6,13.4z"/>
</svg>
